<svg width="17" height="17" viewBox="0 0 17 17" fill="none" xmlns="http://www.w3.org/2000/svg">
<g clip-path="url(#clip0_1_8)">
<rect width="17" height="17" rx="8.5" fill="white"/>
<path d="M8.5 0C3.80444 0 0 3.80444 0 8.5C0 13.1956 3.80444 17 8.5 17C13.1956 17 17 13.1956 17 8.5C17 3.80444 13.1956 0 8.5 0ZM12.6677 10.7313C12.8288 10.8923 12.8288 11.1528 12.6677 11.3139L11.3105 12.6677C11.1494 12.8288 10.8889 12.8288 10.7278 12.6677L8.5 10.4194L6.26875 12.6677C6.10766 12.8288 5.84718 12.8288 5.68609 12.6677L4.33226 11.3105C4.17117 11.1494 4.17117 10.8889 4.33226 10.7278L6.58065 8.5L4.33226 6.26875C4.17117 6.10766 4.17117 5.84718 4.33226 5.68609L5.68952 4.32883C5.8506 4.16774 6.11109 4.16774 6.27218 4.32883L8.5 6.58065L10.7313 4.33226C10.8923 4.17117 11.1528 4.17117 11.3139 4.33226L12.6712 5.68952C12.8323 5.8506 12.8323 6.11109 12.6712 6.27218L10.4194 8.5L12.6677 10.7313Z" fill="#DE342F"/>
</g>
<defs>
<clipPath id="clip0_1_8">
<rect width="17" height="17" rx="8.5" fill="white"/>
</clipPath>
</defs>
</svg>
