<svg width="25" height="25" viewBox="0 0 25 25" fill="none" xmlns="http://www.w3.org/2000/svg">
<rect width="25" height="25" rx="12.5" fill="#DE342F"/>
<path d="M14.5687 10.4314C16.3191 12.1836 16.2951 14.9928 14.5793 16.7182C14.5761 16.7217 14.5722 16.7255 14.5687 16.729L12.6 18.6978C10.8636 20.4342 8.03848 20.434 6.30232 18.6978C4.56589 16.9616 4.56589 14.1363 6.30232 12.4001L7.38941 11.313C7.67769 11.0248 8.17416 11.2164 8.18904 11.6238C8.20802 12.143 8.30113 12.6646 8.47293 13.1683C8.53111 13.3389 8.48954 13.5276 8.3621 13.655L7.97869 14.0384C7.15761 14.8595 7.13186 16.1964 7.94485 17.0255C8.76587 17.8628 10.1153 17.8678 10.9427 17.0404L12.9114 15.072C13.7373 14.2461 13.7339 12.9112 12.9114 12.0887C12.803 11.9805 12.6938 11.8964 12.6084 11.8377C12.5481 11.7962 12.4983 11.7412 12.4629 11.6771C12.4276 11.613 12.4077 11.5415 12.4049 11.4683C12.3933 11.1588 12.503 10.8397 12.7476 10.5951L13.3645 9.97828C13.5262 9.81653 13.7799 9.79667 13.9675 9.92756C14.1823 10.0775 14.3835 10.2461 14.5687 10.4314V10.4314ZM18.6977 6.30223C16.9615 4.56604 14.1365 4.56581 12.4 6.30223L10.4313 8.27098C10.4278 8.27449 10.424 8.2783 10.4207 8.28181C8.70493 10.0072 8.68087 12.8164 10.4313 14.5686C10.6165 14.7539 10.8177 14.9224 11.0325 15.0724C11.22 15.2033 11.4738 15.1834 11.6355 15.0217L12.2523 14.4049C12.497 14.1602 12.6067 13.8412 12.5951 13.5316C12.5923 13.4585 12.5724 13.387 12.5371 13.3229C12.5017 13.2587 12.4519 13.2038 12.3915 13.1623C12.3062 13.1036 12.197 13.0195 12.0886 12.9113C11.2661 12.0888 11.2627 10.7539 12.0886 9.92797L14.0573 7.95952C14.8846 7.13221 16.2341 7.13719 17.0551 7.97446C17.8681 8.80356 17.8424 10.1405 17.0213 10.9616L16.6379 11.345C16.5104 11.4724 16.4689 11.6611 16.527 11.8317C16.6988 12.3354 16.792 12.857 16.8109 13.3762C16.8258 13.7836 17.3223 13.9752 17.6106 13.6869L18.6977 12.5998C20.4341 10.8637 20.4341 8.03836 18.6977 6.30223V6.30223Z" fill="white"/>
</svg>
