<svg width="60" height="60" viewBox="0 0 60 60" fill="none" xmlns="http://www.w3.org/2000/svg">
<g clip-path="url(#clip0_118_2)">
<circle cx="30" cy="30" r="30" fill="#A8A8A8"/>
<path d="M30 1C13.9836 1 1 13.9836 1 30C1 46.0164 13.9836 59 30 59C46.0164 59 59 46.0164 59 30C59 13.9836 46.0164 1 30 1ZM30 15.1823C35.7349 15.1823 40.4013 19.8487 40.4013 25.5836C40.4013 31.3192 35.7349 35.985 30 35.985C24.2644 35.985 19.5987 31.3192 19.5987 25.5836C19.5987 19.8487 24.2644 15.1823 30 15.1823ZM30 55.0322C22.8241 55.0322 16.3874 51.884 11.9833 46.8973C14.0307 43.1918 17.2316 40.1461 21.0377 38.2998C22.3324 37.6721 23.8436 37.6824 25.1847 38.3262C26.6946 39.0519 28.3148 39.4192 30.0006 39.4192C31.6859 39.4192 33.3066 39.0512 34.8166 38.3262C36.159 37.6818 37.6702 37.6721 38.9636 38.2998C42.7697 40.1455 45.97 43.1918 48.0174 46.8973C43.6126 51.8834 37.1759 55.0322 30 55.0322Z" fill="white"/>
</g>
<defs>
<clipPath id="clip0_118_2">
<rect width="60" height="60" fill="white"/>
</clipPath>
</defs>
</svg>
