<svg width="17" height="17" viewBox="0 0 17 17" fill="none" xmlns="http://www.w3.org/2000/svg">
<g clip-path="url(#clip0_1_7)">
<rect width="17" height="17" rx="8.5" fill="white"/>
<path d="M17 8.49999C17 13.1944 13.1944 17 8.50001 17C3.80557 17 8.03301e-06 13.1944 8.03301e-06 8.49999C8.03301e-06 3.80556 3.80557 -8.49386e-06 8.50001 -8.49386e-06C13.1944 -8.49386e-06 17 3.80556 17 8.49999ZM7.51682 13.0007L13.8233 6.69422C14.0374 6.48008 14.0374 6.13284 13.8233 5.9187L13.0477 5.14318C12.8336 4.929 12.4864 4.929 12.2722 5.14318L7.12904 10.2863L4.72782 7.88508C4.51368 7.67093 4.16645 7.67093 3.95227 7.88508L3.17675 8.6606C2.9626 8.87475 2.9626 9.22198 3.17675 9.43612L6.74126 13.0006C6.95544 13.2148 7.30264 13.2148 7.51682 13.0007Z" fill="#00D128"/>
<path d="M17 8.49999C17 13.1944 13.1944 17 8.50001 17C3.80557 17 8.03301e-06 13.1944 8.03301e-06 8.49999C8.03301e-06 3.80556 3.80557 -8.49386e-06 8.50001 -8.49386e-06C13.1944 -8.49386e-06 17 3.80556 17 8.49999ZM7.51682 13.0007L13.8233 6.69422C14.0374 6.48008 14.0374 6.13284 13.8233 5.9187L13.0477 5.14318C12.8336 4.929 12.4864 4.929 12.2722 5.14318L7.12904 10.2863L4.72782 7.88508C4.51368 7.67093 4.16645 7.67093 3.95227 7.88508L3.17675 8.6606C2.9626 8.87475 2.9626 9.22198 3.17675 9.43612L6.74126 13.0006C6.95544 13.2148 7.30264 13.2148 7.51682 13.0007Z" fill="black" fill-opacity="0.2"/>
</g>
<defs>
<clipPath id="clip0_1_7">
<rect width="17" height="17" rx="8.5" fill="white"/>
</clipPath>
</defs>
</svg>
